HIERARCHY
ROOT Hips
{
	OFFSET 0.000000 100.481300 0.000000
	CHANNELS 6 Xposition Yposition Zposition Xrotation Yrotation Zrotation
	JOINT Spine
	{
		OFFSET -0.279200 12.230698 -2.892100
		CHANNELS 3 Xrotation Yrotation Zrotation
		JOINT Spine1
		{
			OFFSET -0.325700 14.269203 -3.374200
			CHANNELS 3 Xrotation Yrotation Zrotation
			JOINT Spine2
			{
				OFFSET -0.372300 16.307602 -0.352600
				CHANNELS 3 Xrotation Yrotation Zrotation
				JOINT Neck
				{
					OFFSET -0.418800 17.814194 8.416900
					CHANNELS 3 Xrotation Yrotation Zrotation
					JOINT Head
					{
						OFFSET 0.000000 7.031097 3.806800
						CHANNELS 3 Xrotation Yrotation Zrotation
						JOINT HeadTop_End
						{
							OFFSET 0.000000 24.646606 12.978600
							CHANNELS 3 Xrotation Yrotation Zrotation
							End Site
							{
								OFFSET 0.000000 27.854965 0.000000
							}
						}
					}
				}
				JOINT LeftShoulder
				{
					OFFSET 16.952999 14.495407 -7.737500
					CHANNELS 3 Xrotation Yrotation Zrotation
					JOINT LeftArm
					{
						OFFSET 9.308998 -2.777710 0.208600
						CHANNELS 3 Xrotation Yrotation Zrotation
						JOINT LeftForeArm
						{
							OFFSET 29.972298 0.000000 0.000000
							CHANNELS 3 Xrotation Yrotation Zrotation
							JOINT LeftHand
							{
								OFFSET 26.026505 0.000000 0.000000
								CHANNELS 3 Xrotation Yrotation Zrotation
								JOINT LeftHandThumb1
								{
									OFFSET 12.240501 -7.147949 9.207150
									CHANNELS 3 Xrotation Yrotation Zrotation
									JOINT LeftHandThumb2
									{
										OFFSET 4.138618 -2.389435 2.389433
										CHANNELS 3 Xrotation Yrotation Zrotation
										JOINT LeftHandThumb3
										{
											OFFSET 2.726913 -1.574387 1.574386
											CHANNELS 3 Xrotation Yrotation Zrotation
											JOINT LeftHandThumb4
											{
												OFFSET 3.941010 -2.275345 2.275342
												CHANNELS 3 Xrotation Yrotation Zrotation
												End Site
												{
													OFFSET -0.005798 5.087799 0.009903
												}
											}
										}
									}
								}
								JOINT LeftHandIndex1
								{
									OFFSET 24.424698 -1.985611 5.953459
									CHANNELS 3 Xrotation Yrotation Zrotation
									JOINT LeftHandIndex2
									{
										OFFSET 6.426697 0.000000 0.000000
										CHANNELS 3 Xrotation Yrotation Zrotation
										JOINT LeftHandIndex3
										{
											OFFSET 5.337898 0.000000 0.000000
											CHANNELS 3 Xrotation Yrotation Zrotation
											JOINT LeftHandIndex4
											{
												OFFSET 4.409401 0.000000 0.000000
												CHANNELS 3 Xrotation Yrotation Zrotation
												End Site
												{
													OFFSET 0.000000 4.409363 0.014373
												}
											}
										}
									}
								}
								JOINT LeftHandMiddle1
								{
									OFFSET 23.810104 0.000000 0.000000
									CHANNELS 3 Xrotation Yrotation Zrotation
									JOINT LeftHandMiddle2
									{
										OFFSET 7.176498 0.000000 0.000000
										CHANNELS 3 Xrotation Yrotation Zrotation
										JOINT LeftHandMiddle3
										{
											OFFSET 6.774902 0.000000 0.000000
											CHANNELS 3 Xrotation Yrotation Zrotation
											JOINT LeftHandMiddle4
											{
												OFFSET 5.403328 0.000000 0.000000
												CHANNELS 3 Xrotation Yrotation Zrotation
												End Site
												{
													OFFSET -0.027702 5.403244 0.017414
												}
											}
										}
									}
								}
								JOINT LeftHandRing1
								{
									OFFSET 22.908401 -0.839279 -6.020567
									CHANNELS 3 Xrotation Yrotation Zrotation
									JOINT LeftHandRing2
									{
										OFFSET 6.337502 0.000000 0.000000
										CHANNELS 3 Xrotation Yrotation Zrotation
										JOINT LeftHandRing3
										{
											OFFSET 5.779297 0.000000 0.000000
											CHANNELS 3 Xrotation Yrotation Zrotation
											JOINT LeftHandRing4
											{
												OFFSET 4.965698 0.000000 0.000000
												CHANNELS 3 Xrotation Yrotation Zrotation
												End Site
												{
													OFFSET 0.000000 4.965668 0.016186
												}
											}
										}
									}
								}
								JOINT LeftHandPinky1
								{
									OFFSET 20.037003 -1.530319 -10.950146
									CHANNELS 3 Xrotation Yrotation Zrotation
									JOINT LeftHandPinky2
									{
										OFFSET 5.254700 0.000000 0.000000
										CHANNELS 3 Xrotation Yrotation Zrotation
										JOINT LeftHandPinky3
										{
											OFFSET 4.810204 0.000000 0.000000
											CHANNELS 3 Xrotation Yrotation Zrotation
											JOINT LeftHandPinky4
											{
												OFFSET 3.647202 0.000000 0.000000
												CHANNELS 3 Xrotation Yrotation Zrotation
												End Site
												{
													OFFSET 0.000000 3.647186 0.011889
												}
											}
										}
									}
								}
							}
						}
					}
				}
				JOINT RightShoulder
				{
					OFFSET -15.141001 14.495407 -7.737500
					CHANNELS 3 Xrotation Yrotation Zrotation
					JOINT RightArm
					{
						OFFSET -9.308998 -2.777710 0.208500
						CHANNELS 3 Xrotation Yrotation Zrotation
						JOINT RightForeArm
						{
							OFFSET -29.972300 0.000000 0.000000
							CHANNELS 3 Xrotation Yrotation Zrotation
							JOINT RightHand
							{
								OFFSET -26.026505 0.000000 0.000000
								CHANNELS 3 Xrotation Yrotation Zrotation
								JOINT RightHandThumb1
								{
									OFFSET -12.240601 -7.148026 9.207092
									CHANNELS 3 Xrotation Yrotation Zrotation
									JOINT RightHandThumb2
									{
										OFFSET -4.138618 -2.389435 2.389433
										CHANNELS 3 Xrotation Yrotation Zrotation
										JOINT RightHandThumb3
										{
											OFFSET -2.726974 -1.574417 1.574421
											CHANNELS 3 Xrotation Yrotation Zrotation
											JOINT RightHandThumb4
											{
												OFFSET -3.941010 -2.275345 2.275343
												CHANNELS 3 Xrotation Yrotation Zrotation
												End Site
												{
													OFFSET 0.005814 5.087799 0.009927
												}
											}
										}
									}
								}
								JOINT RightHandIndex1
								{
									OFFSET -24.424698 -1.985657 5.953444
									CHANNELS 3 Xrotation Yrotation Zrotation
									JOINT RightHandIndex2
									{
										OFFSET -6.426697 0.000000 0.000000
										CHANNELS 3 Xrotation Yrotation Zrotation
										JOINT RightHandIndex3
										{
											OFFSET -5.337898 0.000000 0.000000
											CHANNELS 3 Xrotation Yrotation Zrotation
											JOINT RightHandIndex4
											{
												OFFSET -4.409401 0.000000 0.000000
												CHANNELS 3 Xrotation Yrotation Zrotation
												End Site
												{
													OFFSET 0.000000 4.409363 0.014408
												}
											}
										}
									}
								}
								JOINT RightHandMiddle1
								{
									OFFSET -23.810097 0.000000 0.000000
									CHANNELS 3 Xrotation Yrotation Zrotation
									JOINT RightHandMiddle2
									{
										OFFSET -7.176498 0.000000 0.000000
										CHANNELS 3 Xrotation Yrotation Zrotation
										JOINT RightHandMiddle3
										{
											OFFSET -6.774902 0.000000 0.000000
											CHANNELS 3 Xrotation Yrotation Zrotation
											JOINT RightHandMiddle4
											{
												OFFSET -5.403328 0.000000 0.000000
												CHANNELS 3 Xrotation Yrotation Zrotation
												End Site
												{
													OFFSET 0.027702 5.403244 0.017457
												}
											}
										}
									}
								}
								JOINT RightHandRing1
								{
									OFFSET -22.908302 -0.839325 -6.020576
									CHANNELS 3 Xrotation Yrotation Zrotation
									JOINT RightHandRing2
									{
										OFFSET -6.337502 0.000000 0.000000
										CHANNELS 3 Xrotation Yrotation Zrotation
										JOINT RightHandRing3
										{
											OFFSET -5.779297 0.000000 0.000000
											CHANNELS 3 Xrotation Yrotation Zrotation
											JOINT RightHandRing4
											{
												OFFSET -4.965698 0.000000 0.000000
												CHANNELS 3 Xrotation Yrotation Zrotation
												End Site
												{
													OFFSET 0.000000 4.965668 0.016226
												}
											}
										}
									}
								}
								JOINT RightHandPinky1
								{
									OFFSET -20.037003 -1.530334 -10.950259
									CHANNELS 3 Xrotation Yrotation Zrotation
									JOINT RightHandPinky2
									{
										OFFSET -5.254700 0.000000 0.000000
										CHANNELS 3 Xrotation Yrotation Zrotation
										JOINT RightHandPinky3
										{
											OFFSET -4.810204 0.000000 0.000000
											CHANNELS 3 Xrotation Yrotation Zrotation
											JOINT RightHandPinky4
											{
												OFFSET -3.647202 0.000000 0.000000
												CHANNELS 3 Xrotation Yrotation Zrotation
												End Site
												{
													OFFSET 0.000000 3.647186 0.011917
												}
											}
										}
									}
								}
							}
						}
					}
				}
			}
		}
	}
	JOINT LeftUpLeg
	{
		OFFSET 15.427100 -6.655098 0.678600
		CHANNELS 3 Xrotation Yrotation Zrotation
		JOINT LeftLeg
		{
			OFFSET 4.081073 -39.591068 13.024000
			CHANNELS 3 Xrotation Yrotation Zrotation
			JOINT LeftFoot
			{
				OFFSET -4.081074 -37.707932 -15.979700
				CHANNELS 3 Xrotation Yrotation Zrotation
				JOINT LeftToeBase
				{
					OFFSET 5.346399 -15.068900 20.645000
					CHANNELS 3 Xrotation Yrotation Zrotation
					JOINT LeftToe_End
					{
						OFFSET 2.754700 0.931300 11.300900
						CHANNELS 3 Xrotation Yrotation Zrotation
						End Site
						{
							OFFSET 0.000000 11.669021 0.000000
						}
					}
				}
			}
		}
	}
	JOINT RightUpLeg
	{
		OFFSET -15.569500 -6.655098 0.678600
		CHANNELS 3 Xrotation Yrotation Zrotation
		JOINT RightLeg
		{
			OFFSET -4.081825 -39.591045 13.023800
			CHANNELS 3 Xrotation Yrotation Zrotation
			JOINT RightFoot
			{
				OFFSET 4.081824 -37.707954 -15.979600
				CHANNELS 3 Xrotation Yrotation Zrotation
				JOINT RightToeBase
				{
					OFFSET -5.346400 -15.068900 20.645000
					CHANNELS 3 Xrotation Yrotation Zrotation
					JOINT RightToe_End
					{
						OFFSET -2.754700 0.931300 11.300900
						CHANNELS 3 Xrotation Yrotation Zrotation
						End Site
						{
							OFFSET 0.000000 11.669021 0.000000
						}
					}
				}
			}
		}
	}
}
MOTION
Frames: 4
Frame Time: 0.033333
8.936400 93.108528 5.121368 7.436269 18.170987 -10.059889 9.094201 14.275256 -8.040796 2.681131 5.068566 -2.287730 2.605678 5.093572 -2.318175 -8.462351 -4.901334 3.669910 -17.879723 -30.851066 2.586543 -0.000000 -0.000001 -0.000000 2.497226 -1.564342 -1.691483 -15.163599 -43.986842 -58.461085 -0.000002 -10.902502 -0.000003 21.122659 -3.523428 -12.034231 -3.696461 8.623704 -9.880109 15.980416 19.075451 6.358149 0.778348 -7.800621 19.951686 0.000001 0.000001 0.000001 2.917401 7.295182 -58.181074 3.136861 5.185380 -62.321159 1.272724 3.647194 -38.463210 -0.000002 0.000001 -0.000002 4.074030 8.168936 -55.769751 3.559804 5.385213 -66.910111 1.873686 4.294764 -47.124508 0.000004 0.000001 0.000001 5.520227 8.895124 -59.531321 5.302966 5.825427 -84.615566 0.698614 2.776309 -28.243326 0.000001 -0.000001 0.000000 3.533485 13.133839 -55.052407 3.437234 5.331524 -65.597588 1.788247 4.214044 -45.972996 -0.000004 0.000001 -0.000001 1.615093 29.440783 0.391236 -15.351685 43.623588 57.764085 -0.000004 24.934896 0.000005 36.869105 -8.209703 25.415687 0.354462 12.811186 -11.194148 29.143946 -40.124206 13.358323 2.641881 4.003765 -35.301126 0.000002 0.000003 -0.000000 1.359474 1.247084 15.916923 1.016806 -2.906600 38.555537 0.694753 -2.449091 31.670710 0.000001 -0.000001 0.000000 0.519535 -4.330602 23.952408 1.984558 -3.815359 54.949664 0.397454 -1.884302 23.819424 0.000001 0.000002 0.000000 1.754666 -6.179494 35.003504 1.485945 -3.412417 47.051974 0.426255 -1.948192 24.680614 -0.000000 0.000001 -0.000002 -9.984528 -15.793115 32.068459 2.395430 -4.072150 60.918300 0.734924 -2.512990 32.598659 0.000002 0.000003 0.000002 -34.831847 3.999574 12.620465 27.012565 -4.974208 3.822068 -3.224933 -16.374882 -3.469476 1.917706 -0.000000 0.000002 0.000000 -0.000000 0.000000 -1.634425 -7.676609 2.800464 17.954546 -8.022765 -0.442152 -12.898802 -27.045160 2.933694 -7.559231 -0.000002 -0.000004 0.000000 0.000001 0.000000 
9.098091 93.204781 4.994923 7.368485 18.012279 -9.572123 8.727820 13.764482 -7.431059 2.548150 4.885276 -2.075450 2.464580 4.912383 -2.111025 -8.039227 -4.742556 3.587938 -17.335845 -29.632875 1.873553 0.000000 0.000000 0.000000 2.452078 -1.529584 -2.257801 -11.457372 -40.351815 -58.637707 -0.000000 -11.106177 -0.000005 21.936529 -3.353867 -12.816042 -3.696464 8.623713 -9.880078 15.992077 19.091347 6.347322 0.769741 -7.829703 19.979430 0.000003 -0.000001 -0.000001 2.913325 7.291810 -58.166909 3.136153 5.185004 -62.313257 1.268897 3.642372 -38.403005 -0.000000 0.000000 -0.000003 4.053760 8.156766 -55.728162 3.559980 5.385294 -66.912030 1.874135 4.295182 -47.130576 0.000000 -0.000001 -0.000000 5.513760 8.891677 -59.525707 5.302903 5.825418 -84.614986 0.698705 2.776503 -28.245542 0.000001 -0.000000 0.000001 3.538031 13.143868 -55.061710 3.435452 5.330722 -65.578422 1.787748 4.213565 -45.966108 -0.000001 0.000001 0.000001 1.532132 28.650082 0.810005 -9.989719 41.604800 55.757170 0.000010 25.553671 0.000001 42.431225 -4.021976 21.123221 0.354457 12.811183 -11.194124 29.140807 -40.121160 13.355571 2.644055 4.005956 -35.304510 -0.000003 0.000001 -0.000000 1.357004 1.254560 15.942268 1.013544 -2.902518 38.491285 0.694820 -2.449199 31.672246 0.000000 -0.000001 -0.000000 0.516581 -4.323976 23.952217 1.983788 -3.814813 54.938145 0.397566 -1.884561 23.822967 0.000000 0.000001 -0.000000 1.746249 -6.167588 35.003104 1.485032 -3.411551 47.036415 0.426245 -1.948175 24.680426 0.000000 0.000000 -0.000000 -9.982729 -15.799802 32.065242 2.394584 -4.071688 60.906347 0.733734 -2.511107 32.571434 0.000002 0.000000 -0.000001 -34.381875 4.003164 11.888327 26.598001 -5.120381 3.867061 -2.994999 -15.650429 -3.339724 1.907485 0.000000 -0.000001 -0.000000 0.000001 0.000000 -1.406244 -7.593838 2.481599 17.377494 -8.028632 -1.027470 -12.990840 -26.940967 3.498750 -6.648791 0.000004 -0.000004 0.000000 -0.000001 -0.000000 
9.207169 93.459396 4.848871 6.888138 17.156838 -8.922553 8.362207 13.392441 -6.731306 2.416308 4.751217 -1.826296 2.329528 4.778622 -1.866113 -7.542029 -4.592834 3.570516 -16.652020 -28.303882 1.386184 0.000000 -0.000001 0.000000 2.400621 -1.476566 -2.711645 -8.278590 -36.356383 -59.735168 0.000002 -11.593618 0.000021 20.919859 -3.928534 -12.860915 -3.696470 8.623708 -9.880112 15.987425 19.084916 6.351707 0.770320 -7.827260 19.975773 0.000000 -0.000000 -0.000001 2.911501 7.290955 -58.133960 3.138042 5.185998 -62.334198 1.271154 3.645229 -38.438580 0.000001 -0.000000 0.000001 4.032613 8.144769 -55.664215 3.559704 5.385164 -66.909080 1.874786 4.295788 -47.139319 0.000001 0.000001 -0.000001 5.510609 8.890950 -59.507046 5.302849 5.825417 -84.614419 0.698577 2.776256 -28.242735 0.000000 0.000000 0.000000 3.539655 13.156123 -55.050522 3.430516 5.328493 -65.525304 1.787073 4.212926 -45.957010 -0.000003 -0.000000 0.000000 1.343866 27.966799 1.551433 -2.449987 39.513782 51.862624 -0.000013 26.073638 0.000018 48.078480 0.643074 15.369309 0.354455 12.811178 -11.194124 29.121785 -40.102851 13.338798 2.652668 4.008756 -35.311405 -0.000004 0.000001 -0.000004 1.355745 1.278582 15.924846 1.005227 -2.892038 38.326678 0.694837 -2.449226 31.672663 -0.000001 0.000001 -0.000001 0.513934 -4.318064 23.950091 1.983699 -3.814758 54.936817 0.397577 -1.884577 23.823160 -0.000001 0.000000 0.000001 1.742440 -6.162325 34.999860 1.483499 -3.410131 47.010706 0.426085 -1.947826 24.675704 -0.000001 -0.000000 0.000000 -9.978922 -15.811282 32.064589 2.393581 -4.071106 60.892024 0.732872 -2.509795 32.552087 0.000001 0.000000 -0.000004 -33.252670 4.250527 11.425375 25.905760 -5.262791 3.948112 -2.855203 -14.452591 -3.345897 1.903429 -0.000000 -0.000000 0.000000 0.000000 -0.000000 -1.294780 -7.842775 1.469687 17.217522 -7.974919 -1.044090 -12.173783 -25.378217 4.670041 -7.067346 -0.000010 -0.000001 -0.000000 0.000002 -0.000001 
9.232683 93.776344 4.709327 5.991613 15.488173 -8.151716 8.032142 13.200082 -6.046474 2.306614 4.674981 -1.607255 2.224192 4.699904 -1.649687 -7.028353 -4.452701 3.643549 -16.041555 -26.870318 1.134750 -0.000000 0.000001 0.000000 2.341876 -1.335085 -2.932659 -5.336994 -31.815001 -61.285293 0.000000 -13.131833 0.000010 19.472854 -4.252641 -13.147534 -3.696467 8.623712 -9.880071 15.961601 19.049375 6.375719 0.770498 -7.824323 19.964313 -0.000004 0.000000 0.000000 2.910434 7.291015 -58.092856 3.141288 5.187684 -62.370057 1.277051 3.652626 -38.531197 -0.000000 0.000001 -0.000002 4.022887 8.139795 -55.619228 3.558919 5.384834 -66.900760 1.875015 4.296016 -47.142375 0.000001 -0.000000 0.000000 5.511605 8.892881 -59.484527 5.302791 5.825402 -84.613859 0.698257 2.775673 -28.236318 0.000003 -0.000000 0.000000 3.539000 13.161631 -55.037627 3.424125 5.325586 -65.456503 1.786429 4.212297 -45.948134 0.000002 0.000000 -0.000000 1.045845 27.415777 2.644760 4.454323 35.981812 49.143529 -0.000003 26.370315 -0.000001 53.523760 4.734907 9.061363 0.354458 12.811178 -11.194129 29.097217 -40.079226 13.317158 2.666368 4.018897 -35.328371 0.000001 0.000001 0.000001 1.358981 1.303360 15.840874 1.002723 -2.888869 38.276974 0.694821 -2.449204 31.672342 0.000000 0.000000 0.000000 0.510035 -4.309401 23.934518 1.984606 -3.815384 54.950415 0.397521 -1.884450 23.821471 0.000001 0.000001 -0.000001 1.740647 -6.160096 34.992968 1.482225 -3.408941 46.989287 0.426010 -1.947680 24.673713 0.000001 0.000001 0.000000 -9.975198 -15.824003 32.060519 2.393573 -4.071114 60.892004 0.732638 -2.509412 32.546514 -0.000001 -0.000000 0.000002 -31.508496 4.700348 11.289176 25.172143 -5.351146 4.087028 -2.961747 -12.712974 -3.540680 1.911144 0.000004 0.000002 0.000000 0.000000 0.000000 -1.157097 -8.113414 0.442400 17.177328 -7.975181 -0.972842 -11.347634 -23.286024 5.234552 -7.493948 0.000010 0.000002 0.000000 -0.000000 0.000000 
